<svg width="24" height="30" viewBox="0 0 24 30" fill="none" xmlns="http://www.w3.org/2000/svg">
<path d="M12 20C12.6904 20 13.25 19.4404 13.25 18.75C13.25 18.0596 12.6904 17.5 12 17.5C11.3096 17.5 10.75 18.0596 10.75 18.75C10.75 19.4404 11.3096 20 12 20Z" fill="black" fill-opacity="0.4"/>
<path d="M12 23.75C11.8342 23.75 11.6753 23.6842 11.5581 23.5669C11.4408 23.4497 11.375 23.2908 11.375 23.125V19.375C11.375 19.2092 11.4408 19.0503 11.5581 18.9331C11.6753 18.8158 11.8342 18.75 12 18.75C12.1658 18.75 12.3247 18.8158 12.4419 18.9331C12.5592 19.0503 12.625 19.2092 12.625 19.375V23.125C12.625 23.2908 12.5592 23.4497 12.4419 23.5669C12.3247 23.6842 12.1658 23.75 12 23.75Z" fill="black" fill-opacity="0.4"/>
<path d="M23.25 30H0.75V11.25H23.25V30ZM2 28.75H22V12.5H2V28.75Z" fill="black" fill-opacity="0.4"/>
<path d="M19.5 11.875H18.25V7.5C18.25 4.05375 15.4462 1.25 12 1.25C8.55375 1.25 5.75 4.05375 5.75 7.5H4.5C4.5 3.36437 7.86437 0 12 0C16.1356 0 19.5 3.36437 19.5 7.5V11.875Z" fill="black" fill-opacity="0.4"/>
</svg>
